<svg version="1.1" id="Layer_1" xmlns="http://www.w3.org/2000/svg" xmlns:xlink="http://www.w3.org/1999/xlink" x="0px" y="0px"
	 width="100%" viewBox="0 0 1024 544" enable-background="new 0 0 1024 544" xml:space="preserve">
<path fill="#000000" opacity="1.000000" stroke="none" 
	d="
M280.445557,303.585571 
	C288.980560,317.601532 297.328308,331.304016 306.443146,346.265625 
	C232.346268,346.265625 159.947281,346.265625 86.350815,346.265625 
	C90.123344,340.183929 94.483681,336.333679 98.401695,332.213409 
	C137.428482,291.172180 176.566696,250.236893 215.663681,209.262360 
	C220.015671,204.701355 221.013092,204.736252 224.393524,210.348541 
	C243.040985,241.307495 261.641663,272.294647 280.445557,303.585571 
z"/>
<path fill="#000000" opacity="1.000000" stroke="none" 
	d="
M734.974731,351.694092 
	C733.883972,353.399780 732.494019,353.317474 731.178040,353.321564 
	C724.515930,353.342224 717.851990,353.239471 711.192017,353.360138 
	C708.004700,353.417877 706.608521,352.165100 706.728699,348.954681 
	C706.846985,345.794861 706.733459,342.626587 706.733337,339.462036 
	C706.732239,305.151184 706.728271,270.840363 706.738403,236.529510 
	C706.740417,229.714127 706.766235,229.694321 713.716003,229.694183 
	C731.704163,229.693802 749.696106,229.496231 767.679138,229.806519 
	C778.131714,229.986877 788.001953,232.535965 796.782104,238.801468 
	C815.465698,252.133957 819.380188,292.910553 789.500305,306.635468 
	C787.554260,307.529327 785.638611,308.489380 782.601501,309.951843 
	C788.521545,317.268250 794.074402,324.163361 799.663391,331.029114 
	C805.295288,337.947632 810.963196,344.836884 816.490356,351.586365 
	C815.120239,353.840332 813.462891,353.266022 812.077515,353.276398 
	C803.750061,353.338745 795.419678,353.203491 787.095276,353.376465 
	C783.935669,353.442108 781.843689,352.303589 779.900574,349.868591 
	C771.176025,338.935486 762.300049,328.123199 753.469849,317.274536 
	C750.563416,313.703766 741.291321,311.606689 737.140137,313.516968 
	C734.947327,314.526062 735.341492,316.504456 735.326538,318.270813 
	C735.233398,329.260712 735.190918,340.251099 734.974731,351.694092 
M775.083313,258.306427 
	C773.237976,257.587372 771.450378,256.544403 769.537598,256.203247 
	C759.158386,254.352112 748.679626,255.581314 738.243530,255.460388 
	C735.885437,255.433075 735.353821,257.326447 735.350525,259.329590 
	C735.336792,267.634735 735.351257,275.940002 735.313477,284.244995 
	C735.303406,286.458771 736.156372,287.697968 738.510742,287.683136 
	C747.976807,287.623535 757.472290,288.024689 766.899475,287.395508 
	C773.720032,286.940277 779.603943,283.587799 781.408630,276.401215 
	C783.114197,269.609253 782.201233,263.115448 775.083313,258.306427 
z"/>
<path fill="#000000" opacity="1.000000" stroke="none" 
	d="
M829.690552,245.004868 
	C829.704407,240.841583 829.744080,237.177261 829.726013,233.513229 
	C829.714233,231.124664 830.638428,229.688995 833.226379,229.744614 
	C855.516541,230.223862 877.906494,227.972427 900.079590,230.888580 
	C914.806946,232.825485 926.306885,240.373322 931.445801,255.288147 
	C936.692383,270.515503 935.322449,284.772797 924.799683,297.521912 
	C921.117493,301.983246 916.216858,304.824524 911.084167,307.305725 
	C909.606384,308.020111 907.883545,308.320312 906.219971,310.458099 
	C916.373108,324.782440 928.744812,337.703522 939.369019,351.770203 
	C938.038086,353.873108 936.385986,353.269958 935.004333,353.280762 
	C926.843323,353.344482 918.676575,353.152069 910.522278,353.396393 
	C906.778076,353.508575 904.424866,352.140778 902.148621,349.230194 
	C893.737061,338.474823 885.066284,327.921844 876.465454,317.315094 
	C873.516541,313.678345 864.218933,311.579376 860.145203,313.525055 
	C857.996277,314.551483 858.337830,316.513184 858.332886,318.293732 
	C858.306091,327.954224 858.078064,337.623932 858.433777,347.271545 
	C858.616516,352.227844 856.806213,353.682037 852.111938,353.403503 
	C846.635254,353.078522 841.108826,353.095612 835.631775,353.425751 
	C831.021851,353.703644 829.621399,352.004456 829.642090,347.439148 
	C829.789978,314.793793 829.707031,282.147400 829.697205,249.501343 
	C829.696838,248.168884 829.693665,246.836411 829.690552,245.004868 
M858.325684,275.466553 
	C858.331848,277.797852 858.491394,280.141235 858.309448,282.457764 
	C858.010071,286.270020 859.427490,287.874725 863.425659,287.766113 
	C871.579529,287.544739 879.745239,287.795258 887.902283,287.645935 
	C895.835388,287.500702 902.570190,283.108978 904.551819,277.102692 
	C908.266663,265.842621 900.917236,255.842133 888.281433,255.389603 
	C879.966003,255.091797 871.630005,255.420090 863.306030,255.287552 
	C859.892212,255.233215 858.382935,256.690857 858.379395,259.992889 
	C858.374268,264.821808 858.345520,269.650696 858.325684,275.466553 
z"/>
<path fill="#000000" opacity="1.000000" stroke="none" 
	d="
M590.352661,345.786438 
	C554.074585,323.364105 553.317932,270.667389 579.350403,245.978775 
	C597.804077,228.477707 620.063965,224.153809 644.233582,230.180359 
	C668.044067,236.117325 683.168884,251.788834 688.632629,275.466064 
	C696.625549,310.103912 679.813599,341.661194 648.078918,351.852234 
	C628.362427,358.183868 608.964355,356.123993 590.352661,345.786438 
M606.920959,259.389160 
	C593.433838,268.163727 587.265564,285.200531 591.493469,302.000061 
	C597.268860,324.948425 624.364563,336.463165 643.871155,324.258789 
	C661.111877,313.472046 666.844604,289.888458 656.599243,271.896973 
	C646.757568,254.614273 626.604431,249.334412 606.920959,259.389160 
z"/>
<path fill="#000000" opacity="1.000000" stroke="none" 
	d="
M484.001831,278.648621 
	C492.833557,278.653625 501.165802,278.658630 509.498047,278.663696 
	C516.015625,278.667694 516.062744,278.632751 516.067017,271.888672 
	C516.074707,259.723694 516.187561,247.556778 515.996399,235.394760 
	C515.929016,231.107147 517.330322,229.394257 521.764587,229.633316 
	C527.580261,229.946838 533.439087,229.955505 539.253784,229.633179 
	C543.859863,229.377869 545.311951,231.042786 545.284607,235.629318 
	C545.117371,263.624664 545.201233,291.621521 545.197754,319.617859 
	C545.196594,329.116608 545.077393,338.617065 545.230957,348.113220 
	C545.292603,351.926636 544.027771,353.533752 540.031555,353.371490 
	C533.875977,353.121552 527.695312,353.130615 521.539307,353.378387 
	C517.372986,353.546082 515.991882,351.912933 516.039368,347.838684 
	C516.185181,335.342560 515.884399,322.840271 516.103821,310.346466 
	C516.183350,305.814331 514.279480,304.409637 510.168274,304.582214 
	C497.847809,305.099487 485.529968,305.187744 473.205841,304.486481 
	C466.654877,304.113770 465.402100,305.481842 465.392456,312.268158 
	C465.375916,323.933167 465.188599,335.604553 465.523468,347.260284 
	C465.665283,352.196960 463.933380,353.674500 459.212372,353.397858 
	C453.399750,353.057312 447.549255,353.208893 441.720490,353.358215 
	C438.404022,353.443146 436.850067,352.343781 436.855194,348.803741 
	C436.910553,310.642212 436.903870,272.480560 436.835114,234.319046 
	C436.828888,230.864975 438.184113,229.580322 441.593201,229.662140 
	C448.088654,229.818024 454.594116,229.842529 461.088074,229.660110 
	C464.691620,229.558914 465.540619,231.054596 465.489532,234.445419 
	C465.296295,247.274170 465.538147,260.110016 465.298187,272.937225 
	C465.216888,277.283295 466.598816,279.008270 471.008789,278.703064 
	C475.154694,278.416138 479.336365,278.646057 484.001831,278.648621 
z"/>
<path fill="#000000" opacity="1.000000" stroke="none" 
	d="
M295.607361,286.389771 
	C288.112030,278.551971 280.934906,270.896545 273.559052,263.437592 
	C270.968872,260.818207 270.401550,258.722290 273.228729,255.915146 
	C277.717010,251.458694 282.049744,246.839783 286.324005,242.175705 
	C289.197632,239.039978 291.114044,239.658463 293.176544,243.111893 
	C305.470306,263.696106 317.877747,284.212311 330.235016,304.758575 
	C337.013702,316.029449 343.768433,327.314697 350.534790,338.592987 
	C351.536865,340.263275 352.725342,341.861389 352.268097,344.367004 
	C332.471466,326.050629 314.690277,305.824585 295.607361,286.389771 
z"/>
<path fill="#000000" opacity="1.000000" stroke="none" 
	d="
M339.957581,290.573608 
	C342.815491,287.340759 345.647552,284.508636 348.214325,281.453552 
	C350.884247,278.275635 352.830627,278.396240 354.966644,282.029541 
	C359.775818,290.209839 364.773621,298.279327 369.701721,306.389648 
	C376.616943,317.770325 383.542542,329.144714 390.450226,340.529938 
	C391.024261,341.476044 391.988739,342.326599 391.318939,344.058777 
	C387.458496,342.263245 384.834595,339.027771 382.035553,336.216980 
	C368.874451,323.000671 355.884186,309.613770 342.889771,296.232574 
	C341.454651,294.754761 339.364471,293.501068 339.957581,290.573608 
z"/>
</svg>